{"accessors" : [{"bufferView" : 0, "byteOffset" : 0, "componentType" : 5123, "count" : 4284, "type" : "SCALAR", "max" : [4283], "min" : [0]}, {"bufferView" : 1, "byteOffset" : 0, "componentType" : 5126, "count" : 4284, "type" : "VEC3", "max" : [1000, 1000, 300], "min" : [-1000, -1000, 0], "name" : "POSITION"}, {"bufferView" : 1, "byteOffset" : 12, "componentType" : 5126, "count" : 4284, "type" : "VEC3", "max" : [1.0000044107437134, 1.0000044107437134, 1.0000044107437134], "min" : [-1.0000044107437134, -1.0000044107437134, 0], "name" : "NORMAL"}, {"bufferView" : 1, "byteOffset" : 24, "componentType" : 5126, "count" : 4284, "type" : "VEC2", "max" : [1.0000001192092896, 1], "min" : [0, -1.1920928955078125E-07], "name" : "TEXCOORD_0"}], "asset" : {"generator" : "Aspose.3D 24.1.0", "version" : "2.0"}, "buffers" : [{"uri" : "data:application/octet-stream;base64,", "byteLength" : 145664}], "bufferViews" : [{"buffer" : 0, "byteOffset" : 0, "byteLength" : 8568, "target" : 34963}, {"buffer" : 0, "byteOffset" : 8572, "byteLength" : 137088, "byteStride" : 32, "target" : 34962}], "meshes" : [{"primitives" : [{"attributes" : {"POSITION" : 1, "NORMAL" : 2, "TEXCOORD_0" : 3}, "indices" : 0, "mode" : 4}], "name" : ""}], "nodes" : [{"matrix" : [1, 0, 0, 0, 0, 4.371138850878252E-08, -0.999999999999999, 0, 0, 0.999999999999999, 4.371138850878252E-08, 0, 0, 1.52587890625E-05, -2.4959444999694824E-07, 1], "mesh" : 0, "name" : "Plane001"}], "scene" : 0, "scenes" : [{"nodes" : [0]}]}